<svg width="1349" height="1349" viewBox="0 0 1349 1349" fill="none" xmlns="http://www.w3.org/2000/svg">
<path fill-rule="evenodd" clip-rule="evenodd" d="M808.064 65.8544L1282.93 540.717C1370.73 628.523 1370.73 772.137 1282.93 859.943L859.943 1282.93C772.137 1370.73 628.523 1370.73 540.717 1282.93L65.8544 808.064C-21.9515 720.258 -21.9515 576.644 65.8544 488.838L488.838 65.8544C576.644 -21.9515 720.258 -21.9515 808.064 65.8544Z" fill="#235AA7"/>
<path fill-rule="evenodd" clip-rule="evenodd" d="M788.183 156.327L1192.45 560.599C1267.21 635.354 1267.21 757.636 1192.45 832.344L832.39 1192.41C757.635 1267.16 635.353 1267.16 560.645 1192.41L156.373 788.137C81.619 713.382 81.619 591.1 156.373 516.392L516.438 156.327C591.192 81.5732 713.475 81.5732 788.183 156.327Z" fill="#FEFEFE"/>
<path fill-rule="evenodd" clip-rule="evenodd" d="M896.899 689.897C874.866 719.649 837.442 741.402 798.428 747.483C745.099 755.81 696.822 733.543 668.847 775.177C655.562 794.918 658.837 815.782 658.837 842.54V1077.23C677.97 1081.59 709.92 1067.22 721.849 1059.74C736.819 1050.38 752.069 1033.59 761.565 1016.65C772.886 996.493 775.272 974.881 775.272 948.59C775.272 920.85 775.272 893.156 775.272 865.416C965.479 864.995 1106.15 670.531 1019.14 477.938C1012.59 463.483 1001.92 446.127 993.593 435.181C962.064 393.687 926.698 364.964 878.094 344.615C838.331 327.961 807.222 324.78 760.209 324.312H736.398L446.362 324.359C446.596 384.846 491.832 432.374 546.939 439.344C575.334 442.9 719.51 439.812 763.015 440.467C798.428 440.982 823.595 444.35 850.494 460.021C915.097 497.632 945.27 572.527 921.038 644.521L908.501 672.215C905.694 676.846 904.384 677.22 903.776 681.571C902.513 682.553 902.747 682.319 901.577 683.489C901.016 684.05 900.268 684.892 899.8 685.5C898.537 687.091 897.788 688.167 896.853 689.851L896.899 689.897Z" fill="#235AA7"/>
<path fill-rule="evenodd" clip-rule="evenodd" d="M562.423 1077.8C564.013 1032.09 562.563 983.63 562.563 937.645C562.563 892.643 560.411 841.372 563.031 797.446C567.615 721.288 627.681 661.083 702.154 653.691C750.946 648.873 792.159 664.919 819.946 631.144C847.593 597.509 828.881 552.46 794.825 540.157C773.681 532.532 687.606 537.116 662.766 542.215C643.539 546.191 626.231 551.758 609.062 559.243L562.797 584.317C560.739 559.898 547.547 544.507 527.104 538.566C517.327 535.713 459.601 536.087 446.783 537.069C445.192 551.758 446.549 841.279 446.549 864.528C446.549 891.754 446.549 918.98 446.549 946.206C446.549 975.444 447.438 992.425 459.647 1015.67C476.161 1047.06 512.462 1078.97 562.516 1077.84L562.423 1077.8Z" fill="#00AFEF"/>
</svg>
